<?xml version="1.0" encoding="utf-8"?>
<!-- Generator: Adobe Illustrator 19.2.1, SVG Export Plug-In . SVG Version: 6.00 Build 0)  -->
<svg version="1.1" id="Layer_1" xmlns="http://www.w3.org/2000/svg" xmlns:xlink="http://www.w3.org/1999/xlink" x="0px" y="0px"
	 viewBox="0 0 142 142" style="enable-background:new 0 0 142 142;" xml:space="preserve">
<style type="text/css">
	.st0{fill:#34495E;}
	.st1{fill:#3498DB;}
	.st2{fill:#2BCC71;}
</style>
<g>
	<path class="st0" d="M142,71c0,0.1,0,0.3,0,0.4c-0.1,22.6-10.8,42.6-27.3,55.5c-12,9.4-27.2,15.1-43.7,15.1c-2.7,0-5.4-0.2-8-0.5
		c-35.4-4-63-34.1-63-70.5C0,31.8,31.8,0,71,0c35.6,0,65,26.1,70.2,60.2C141.7,63.7,142,67.3,142,71z"/>
	<path class="st1" d="M81.4,60.5c0.1-2.2-0.2-4.4-0.7-6.5l4-2.3l-0.2-0.6L83,47.3l-4.5,0.9c-1-1.9-2.3-3.7-3.8-5.3l2.3-4l-0.5-0.4
		L73.4,36L70,39.1c-1.8-1.1-3.8-2.1-6-2.7l0-4.6l-0.7-0.1l0,0l-4-0.6L58,35.4c-2.2-0.1-4.4,0.1-6.5,0.7l-2.3-4l-0.6,0.2l0,0
		l-3.8,1.4l0.9,4.5c-1.9,1-3.7,2.3-5.3,3.8l-4-2.3L36,40.2l0,0l-2.5,3.1l3.1,3.4c-1.1,1.8-2.1,3.8-2.7,6l-4.6,0l-0.1,0.7l0,0l-0.6,4
		l4.4,1.4c-0.1,2.2,0.1,4.4,0.6,6.5l-4,2.3l0.2,0.6l0,0l1.4,3.8l4.5-0.9c1,1.9,2.3,3.7,3.8,5.3l-2.3,4l0.5,0.4l0,0l3.1,2.5l3.4-3.1
		c1.8,1.1,3.8,2.1,6,2.7l0,4.6l0.7,0.1l4,0.6l1.4-4.4c2.2,0.1,4.4-0.1,6.5-0.7l2.3,4l0.6-0.2l3.8-1.4l-0.9-4.5
		c1.9-1,3.7-2.3,5.3-3.8l4,2.3l0.4-0.5l2.5-3.1l-3.1-3.4c1.1-1.8,2.1-3.8,2.7-6l4.6,0l0.1-0.7l0.6-4L81.4,60.5z M60.3,40.4
		c3.8,0.6,7.2,2.3,9.9,4.8l-6.4,6.3c-1.4-1.1-3.1-1.9-5-2.3c-1.9-0.3-3.8-0.1-5.5,0.5l-4-8C52.7,40.3,56.4,39.8,60.3,40.4z
		 M37.8,56.5c1-5.9,4.5-10.8,9.2-13.6l4,8c-2.3,1.6-4,4.1-4.5,7c-0.1,0.8-0.2,1.6-0.1,2.3l-8.9,1.4C37.5,60,37.5,58.3,37.8,56.5z
		 M52.7,78.7c-7.4-1.7-13-7.5-14.6-14.6l8.9-1.4c1,3.3,3.7,6.1,7.2,7.1L52.7,78.7z M53.1,59c0.4-2.2,2.5-3.7,4.7-3.4
		c2.2,0.4,3.7,2.5,3.4,4.7c-0.4,2.2-2.5,3.7-4.7,3.4C54.2,63.3,52.7,61.2,53.1,59z M55.2,79.1l1.4-8.9c3.6,0.2,7-1.6,9.1-4.4l8,4.1
		C69.9,76.1,62.8,79.9,55.2,79.1z M74.9,67.7l-8-4.1c0.3-0.7,0.5-1.5,0.6-2.2c0.5-3-0.3-5.9-2-8.1L72,47c3.6,4.2,5.4,9.9,4.4,15.8
		C76.1,64.5,75.6,66.2,74.9,67.7z"/>
	<path class="st2" d="M111.9,99.7l0.2-0.6l0,0l1.4-3.8l-3.3-1.8c0.5-2.7,0.4-5.5-0.3-8l3.1-2.1l-0.3-0.6l0,0l-1.7-3.7l-3.6,1
		c-1.5-2.2-3.5-4.1-5.9-5.4l0.7-3.7l-0.6-0.2l-3.8-1.4L96,72.7c-2.7-0.5-5.4-0.4-8,0.3l-2.1-3.1l-0.6,0.3l-3.7,1.7l1,3.6
		c-2.2,1.5-4.1,3.5-5.4,5.9l-3.7-0.7l-0.2,0.6L72,85.1l3.3,1.8c-0.5,2.7-0.4,5.4,0.3,8L72.5,97l0.3,0.6l1.7,3.6l3.6-1
		c1.5,2.2,3.5,4.1,5.9,5.4l-0.7,3.7l0.6,0.2l0,0l3.8,1.4l1.8-3.3c2.7,0.5,5.4,0.4,8-0.3l2.1,3.1l0.6-0.3l0,0l3.7-1.7l-1-3.6
		c2.2-1.5,4.1-3.5,5.4-5.9L111.9,99.7z M101.8,80.2c0.9,0.8,1.7,1.7,2.3,2.7L98.7,86c-0.3-0.4-0.7-0.8-1.1-1.2
		c-1.5-1.4-3.5-2-5.5-1.9l-1.3-6.1C94.8,76.3,98.8,77.4,101.8,80.2z M82.7,81.1c1.8-2,4.1-3.3,6.5-4l1.3,6.1
		c-1.2,0.4-2.3,1.1-3.2,2.1c-0.9,1-1.5,2.2-1.7,3.4L79.4,88C79.8,85.5,80.9,83.1,82.7,81.1z M83.6,100.2c-3.1-2.8-4.6-6.7-4.4-10.5
		l6.2,0.7c0.1,1.9,0.9,3.8,2.4,5.2c0.4,0.4,0.8,0.7,1.3,0.9l-2.6,5.7C85.5,101.7,84.5,101.1,83.6,100.2z M90.8,92.3
		c-1.2-1.1-1.2-2.9-0.2-4c1.1-1.2,2.9-1.3,4-0.2c1.2,1.1,1.2,2.9,0.2,4C93.8,93.3,92,93.4,90.8,92.3z M88.2,103l2.6-5.7
		c2.3,0.7,4.9,0.1,6.8-1.5l4.6,4.2C98.4,103.6,92.9,104.7,88.2,103z M103.3,98.6l-4.6-4.2c1.5-2.1,1.7-4.7,0.8-6.9l5.4-3.1
		C107.1,89,106.6,94.5,103.3,98.6z"/>
</g>
</svg>
