<?xml version="1.0" encoding="utf-8"?>
<!-- Generator: Adobe Illustrator 19.2.1, SVG Export Plug-In . SVG Version: 6.00 Build 0)  -->
<svg version="1.1" id="Layer_1" xmlns="http://www.w3.org/2000/svg" xmlns:xlink="http://www.w3.org/1999/xlink" x="0px" y="0px"
	 viewBox="0 0 142 142" style="enable-background:new 0 0 142 142;" xml:space="preserve">
<style type="text/css">
	.st0{fill:#34495E;}
	.st1{fill:#B7C9CB;}
	.st2{fill:#E8E8E8;}
	.st3{fill:#21303D;}
	.st4{fill:#FFFFFF;}
	.st5{fill:#E67E22;}
	.st6{fill:#E74C3C;}
	.st7{fill:#BDC3C7;}
	.st8{fill:#F39C12;}
	.st9{fill:#27AE60;}
	.st10{fill:#2980B9;}
	.st11{fill:#D35400;}
</style>
<path class="st0" d="M141.5,79.8c-1.2,9.2-4.2,18.5-9.5,27.4l0,0c-11.1,18.8-29.8,30.9-50.2,34.1c-4.8,0.7-9.6,1-14.5,0.7
	C30,140,0,109.2,0,71C0,31.8,31.8,0,70.9,0C115.3,0,146.5,39.5,141.5,79.8z"/>
<g>
	<path class="st1" d="M65.8,87.9c-0.8,3.2-1.6,6.5-2.4,9.7c7.4,0,14.8,0,22.2,0c-0.8-3.2-1.6-6.5-2.4-9.7
		C77.4,87.9,71.6,87.9,65.8,87.9z"/>
	<path class="st2" d="M87,97.4H62c-0.6,0-1.1,0.6-1.1,1.3v0.5h27.2v-0.5C88.1,98,87.6,97.4,87,97.4z"/>
	<path class="st2" d="M37,84.1v5.4c0,1,0.8,1.9,1.9,1.9h71.3c1,0,1.9-0.8,1.9-1.9v-5.4H37z"/>
	<path class="st3" d="M112,84.1V38.7c0-1-0.8-1.9-1.9-1.9H38.8c-1,0-1.9,0.8-1.9,1.9v45.4C36.9,84.1,112,84.1,112,84.1z"/>
	<rect x="40" y="39.7" class="st4" width="68.9" height="41.2"/>
	<rect x="47.7" y="74.2" class="st5" width="3.2" height="4.2"/>
	<rect x="54" y="70.4" class="st5" width="3.2" height="8"/>
	<rect x="60.3" y="67.5" class="st5" width="3.2" height="10.9"/>
	<rect x="66.6" y="70.1" class="st5" width="3.2" height="8.3"/>
	<rect x="72.9" y="60.7" class="st5" width="3.2" height="17.7"/>
	<rect x="79.2" y="63.9" class="st5" width="3.2" height="14.5"/>
	<rect x="85.5" y="57.4" class="st5" width="3.2" height="21"/>
	<rect x="91.8" y="51.5" class="st5" width="3.2" height="26.9"/>
	<rect x="98.2" y="45.4" class="st5" width="3.2" height="33"/>
	<rect x="44.6" y="44.6" class="st6" width="12.9" height="1.2"/>
	<rect x="44.6" y="47.7" class="st7" width="23.3" height="0.8"/>
	<rect x="44.6" y="50" class="st7" width="19.8" height="0.8"/>
	<rect x="44.6" y="52.3" class="st7" width="21.9" height="0.8"/>
	<rect x="44.6" y="54.6" class="st7" width="17.1" height="0.8"/>
	<path class="st6" d="M44.6,57.6v2.2h7.5v-2.2H44.6z M50.9,59h-5v-0.8h5V59z"/>
	<path class="st7" d="M44.3,73.9c-0.1,0-0.2-0.1-0.3-0.2c-0.1-0.2-0.1-0.4,0.1-0.5l18-11.7c0.1-0.1,0.2-0.1,0.4,0l5.4,3l6.6-10.4
		c0.1-0.1,0.1-0.1,0.2-0.2c0.1,0,0.2,0,0.3,0.1l5.7,4.4l18.6-16.1c0.1-0.1,0.4-0.1,0.5,0s0.1,0.4,0,0.5L80.9,59.2
		c-0.1,0.1-0.3,0.1-0.4,0l-5.6-4.3l-6.6,10.3c-0.1,0.2-0.3,0.2-0.5,0.1l-5.5-3.1L44.5,73.8C44.5,73.9,44.4,73.9,44.3,73.9L44.3,73.9
		z"/>
	<circle class="st6" cx="44.8" cy="73.4" r="1.3"/>
	<circle class="st6" cx="62.1" cy="62" r="1.3"/>
	<circle class="st6" cx="67.9" cy="65" r="1.3"/>
	<circle class="st6" cx="74.8" cy="54.5" r="1.3"/>
	<circle class="st6" cx="80.9" cy="59.1" r="1.3"/>
	<circle class="st6" cx="99.5" cy="42.7" r="1.3"/>
	<g>
		<path class="st3" d="M56,69.7H31.8c-1,0-1.8,0.8-1.8,1.8v31.9c0,1,0.8,1.8,1.8,1.8H56c1,0,1.8-0.8,1.8-1.8V71.5
			C57.8,70.5,57,69.7,56,69.7z"/>
		<circle class="st4" cx="43.9" cy="103.6" r="0.7"/>
		<rect x="33.2" y="73.1" class="st4" width="21.5" height="28.6"/>
	</g>
	<g>
		<path class="st8" d="M46.6,88.3c-0.1,0.4-0.3,0.8-0.6,1.1l2.1,3c1.1-0.9,1.8-2.2,2.1-3.6L46.6,88.3z"/>
		<path class="st9" d="M44.4,84.6c1.2,0.3,2.2,1.3,2.3,2.6l3.6,0.4v-0.1c0-3.4-2.6-6.2-5.9-6.5C44.4,81,44.4,84.6,44.4,84.6z"/>
		<path class="st10" d="M41.7,85.5c0.4-0.4,0.9-0.8,1.6-0.9V81c-1.9,0.2-3.6,1.2-4.7,2.7L41.7,85.5z"/>
		<path class="st11" d="M45,90.1c-0.4,0.2-0.8,0.3-1.2,0.3c-1.6,0-2.9-1.3-2.9-2.9c0-0.3,0.1-0.6,0.2-0.9L38,84.8
			c-0.4,0.8-0.6,1.8-0.6,2.8c0,3.6,2.9,6.5,6.5,6.5c1.2,0,2.3-0.3,3.3-0.9L45,90.1z"/>
	</g>
	<g>
		<rect x="44" y="97.7" class="st1" width="6.2" height="0.5"/>
		<rect x="35.8" y="96" class="st1" width="6.2" height="0.5"/>
		<rect x="34.6" y="79.7" class="st1" width="6.2" height="0.5"/>
		<g>
			<polygon class="st1" points="42,96.6 41.8,96.5 42.3,94.2 42.6,94.3 			"/>
		</g>
		<g>
			<polygon class="st1" points="41.3,81 40.5,79.8 40.7,79.7 41.6,80.9 			"/>
		</g>
		<rect x="47" y="79.2" class="st1" width="6.2" height="0.5"/>
		<g>
			<polygon class="st1" points="46.2,80.9 46,80.8 47,79.2 47.2,79.3 			"/>
		</g>
		<g>
			<polygon class="st1" points="49.9,97.9 48.6,92.2 48.9,92.2 50.2,97.8 			"/>
		</g>
	</g>
</g>
</svg>
