<?xml version="1.0" encoding="utf-8"?>
<!-- Generator: Adobe Illustrator 19.2.1, SVG Export Plug-In . SVG Version: 6.00 Build 0)  -->
<svg version="1.1" id="Layer_1" xmlns="http://www.w3.org/2000/svg" xmlns:xlink="http://www.w3.org/1999/xlink" x="0px" y="0px"
	 viewBox="0 0 142 142" style="enable-background:new 0 0 142 142;" xml:space="preserve">
<style type="text/css">
	.st0{fill:#34495E;}
	.st1{fill:#A4CD33;}
</style>
<g>
	<path class="st0" d="M142,71c0,0.1,0,0.3,0,0.4c-0.1,22.6-10.8,42.6-27.3,55.5c-12,9.4-27.2,15.1-43.7,15.1c-2.7,0-5.4-0.2-8-0.5
		c-35.4-4-63-34.1-63-70.5C0,31.8,31.8,0,71,0c35.6,0,65,26.1,70.2,60.2C141.7,63.7,142,67.3,142,71z"/>
	<g>
		<path class="st1" d="M40.5,56.1c-2.9,0-5.2,2.3-5.2,5.2h0v8.8v4.1v8.8h0c0,2.9,2.3,5.2,5.2,5.2c2.9,0,5.2-2.3,5.2-5.2h0v-8.8v-4.1
			v-8.8h0C45.7,58.4,43.3,56.1,40.5,56.1z"/>
		<path class="st1" d="M106.7,61.3c0-2.9-2.3-5.2-5.2-5.2c-2.9,0-5.2,2.3-5.2,5.2h0v8.8v4.1v8.8h0c0,2.9,2.3,5.2,5.2,5.2
			c2.9,0,5.2-2.3,5.2-5.2l0,0v-8.8v-4.1V61.3L106.7,61.3z"/>
		<path class="st1" d="M47.8,57h-0.3v34.2c0,2.9,2.3,5.2,5.2,5.2h4.4v3.1v8.8h0c0,2.9,2.3,5.2,5.2,5.2s5.2-2.3,5.2-5.2l0,0v-8.8
			v-3.1h7.1v3.1v8.8c0,2.9,2.3,5.2,5.2,5.2c2.9,0,5.2-2.3,5.2-5.2v-8.8v-3.1h4.4c2.9,0,5.2-2.3,5.2-5.2V57h-0.1H47.8z"/>
		<path class="st1" d="M94.4,55.2v-2.5c-0.1-0.7-0.2-1.4-0.3-2.1c-1.3-6.1-5.5-11.2-11.4-14.2l3.6-6.6c0.2-0.4,0.1-0.9-0.3-1.1
			c-0.4-0.2-0.9-0.1-1.1,0.3l-3.6,6.7c-3.1-1.3-6.5-2.1-10.2-2.1c-3.7,0-7.2,0.8-10.3,2.1l-3.6-6.7c-0.2-0.4-0.7-0.6-1.1-0.3
			c-0.4,0.2-0.6,0.7-0.3,1.1l3.6,6.6c-5.6,2.9-9.7,7.7-11.1,13.5c-0.4,1.5-0.6,3-0.6,4.6c0,0.2,0,0.5,0,0.7H94.4z M81.7,42.5
			c1.2,0,2.2,1,2.2,2.2c0,1.2-1,2.2-2.2,2.2c-1.2,0-2.2-1-2.2-2.2C79.5,43.5,80.5,42.5,81.7,42.5z M60.3,42.5c1.2,0,2.2,1,2.2,2.2
			c0,1.2-1,2.2-2.2,2.2c-1.2,0-2.2-1-2.2-2.2C58.1,43.5,59.1,42.5,60.3,42.5z"/>
	</g>
</g>
</svg>
