<?xml version="1.0" encoding="utf-8"?>
<!-- Generator: Adobe Illustrator 19.2.1, SVG Export Plug-In . SVG Version: 6.00 Build 0)  -->
<svg version="1.1" id="Layer_1" xmlns="http://www.w3.org/2000/svg" xmlns:xlink="http://www.w3.org/1999/xlink" x="0px" y="0px"
	 viewBox="0 0 142 142" style="enable-background:new 0 0 142 142;" xml:space="preserve">
<style type="text/css">
	.st0{fill:#34495E;}
	.st1{fill:#3498DB;}
</style>
<path class="st0" d="M141.5,79.8c-1.2,9.2-4.2,18.5-9.5,27.4c-11.1,18.8-29.8,30.9-50.2,34.1c-4.8,0.7-9.6,1-14.5,0.7
	C30,140,0,109.2,0,71C0,31.8,31.8,0,70.9,0C115.3,0,146.5,39.5,141.5,79.8z"/>
<path class="st1" d="M95.3,59.7c-0.8,0-1.6,0-2.3,0.1c-2.9-11-12.8-18.9-24.6-18.9C54.4,41,43,52.1,43,66.1v0.3
	c-9.4,0-17.1,8.1-17,17.5c0,9.4,7.7,17.2,17.1,17.2l8.3,0.1h45.4c4.8,0,9.4-2.1,12.4-5.5c4.3-3.9,6.8-9.6,6.8-15.4
	C116,69,106.7,59.7,95.3,59.7z"/>
</svg>
