<?xml version="1.0" encoding="utf-8"?>
<!-- Generator: Adobe Illustrator 19.2.1, SVG Export Plug-In . SVG Version: 6.00 Build 0)  -->
<svg version="1.1" id="Layer_1" xmlns="http://www.w3.org/2000/svg" xmlns:xlink="http://www.w3.org/1999/xlink" x="0px" y="0px"
	 viewBox="0 0 142 142" style="enable-background:new 0 0 142 142;" xml:space="preserve">
<style type="text/css">
	.st0{fill:#34495E;}
	.st1{fill-rule:evenodd;clip-rule:evenodd;fill:#FFFFFF;}
</style>
<g>
	<path class="st0" d="M142,71c0,0.1,0,0.3,0,0.4c-0.1,22.6-10.8,42.6-27.3,55.5c-12,9.4-27.2,15.1-43.7,15.1c-2.7,0-5.4-0.2-8-0.5
		c-35.4-4-63-34.1-63-70.5C0,31.8,31.8,0,71,0c35.6,0,65,26.1,70.2,60.2C141.7,63.7,142,67.3,142,71z"/>
	<g>
		<path class="st1" d="M74.6,31.9c5.6-7.4,13.3-7.4,13.3-7.4s1.2,6.9-4.4,13.6c-5.9,7.1-12.7,6-12.7,6S69.6,38.4,74.6,31.9z"/>
		<path class="st1" d="M71.6,48.9c2.9,0,8.2-3.9,15.1-3.9c11.9,0,16.6,8.5,16.6,8.5s-9.2,4.7-9.2,16.1c0,12.9,11.5,17.3,11.5,17.3
			s-8,22.5-18.8,22.5c-5,0-8.8-3.3-14.1-3.3c-5.3,0-10.6,3.5-14.1,3.5c-9.9,0-22.3-21.4-22.3-38.6c0-16.9,10.6-25.8,20.5-25.8
			C63.3,45.2,68.2,48.9,71.6,48.9z"/>
	</g>
</g>
</svg>
